<?xml version="1.0" encoding="utf-8"?>
<!-- Svg Vector Icons : http://www.onlinewebfonts.com/icon -->
<!DOCTYPE svg PUBLIC "-//W3C//DTD SVG 1.1//EN" "http://www.w3.org/Graphics/SVG/1.1/DTD/svg11.dtd">
<svg version="1.1" xmlns="http://www.w3.org/2000/svg" xmlns:xlink="http://www.w3.org/1999/xlink" x="0px" y="0px" viewBox="0 0 1000 1000" enable-background="new 0 0 1000 1000" xml:space="preserve">
<metadata> Svg Vector Icons : http://www.onlinewebfonts.com/icon </metadata>
<g><path d="M464.8,661.2c12.5,16.7,32.9,16.3,32.9,16.3c-29.3-71-78.4-74.3-78.4-74.3c-53.1-4.6-149.5,15.6-149.5,15.6l-26.7,58.7L464.8,661.2z"/><path d="M541.1,663.8c4.2-4.2,7.8-2.6,7.8-2.6l219.6,15.7L742.9,623c-45-14.1-117.9-18.8-117.9-18.8c-80.3-9.4-109,52.8-109,52.8v19.9C525.4,681.1,541.1,663.8,541.1,663.8z"/><path d="M257.2,292.1h-3.1l-18.8,47.1v322l22-55.4V292.1z"/><path d="M754.4,605.3l20.9,51.8V344.9l-20.9-52.8V605.3z"/><path d="M795.2,693.6l-246.2-15.2c-45.5,41.8-84.7,0.5-84.7,0.5l-251.5,15.7V339.1l16.7-19.9H196v399.4l259.3-19.3c48.6,37.1,106.1,0,106.1,0l254.6,19.3V316.9h-39.7l18.8,21.7L795.2,693.6L795.2,693.6z"/><path d="M500,10C229.4,10,10,229.4,10,500s219.4,490,490,490c270.6,0,490-219.4,490-490C990,229.4,770.6,10,500,10z M834.4,737l-271.3-20.4c0,0-55.9,41.8-109.8-1l-277.6,22.7l0-431.6h63.3l13.3-42.9c0,0,206.3-77.9,253.1,36.1c0,0,32.7-114,250.7-36.6l15.2,40.3h63.3V737z"/></g>
</svg>