<?xml version="1.0" encoding="utf-8"?>
<!-- Svg Vector Icons : http://www.onlinewebfonts.com/icon -->
<!DOCTYPE svg PUBLIC "-//W3C//DTD SVG 1.1//EN" "http://www.w3.org/Graphics/SVG/1.1/DTD/svg11.dtd">
<svg version="1.1" xmlns="http://www.w3.org/2000/svg" xmlns:xlink="http://www.w3.org/1999/xlink" x="0px" y="0px" viewBox="0 0 1000 1000" enable-background="new 0 0 1000 1000" xml:space="preserve">
<metadata> Svg Vector Icons : http://www.onlinewebfonts.com/icon </metadata>
<g><path d="M232.9,520.1v117.3c0,136.4,536.4,136.4,536.4,0V519.3c0-11.8-12-19.8-22.9-15.2l-230.7,96.4c-10.4,4.4-20.9,4.4-31.3,0l-228.6-95.5C244.9,500.3,232.9,508.3,232.9,520.1 M128,449.9v101.4c0,1,0.4,1.9,1.1,2.7c2.1,2.2,3.4,1.8,5.8,0.4c11.9-7,13.5,8.5,13.6,16.7c0,6.5-1.3,14.2-3.9,20.3c-0.3,0.8,0.1,1.6,0.9,1.7c6.9,1.6,6.4,11.3,0.3,12.9c-0.8,0.2-1.2,1.1-0.8,1.9c27.7,47.9,39.7,116.8-6.8,157.4c-1.5,1.4-2.6,0.8-2.3-1.3c0.9-5.4,1.5-10.5,2.1-15.4c2-18.9-0.8-18.4-6.6-0.6c-3.8,11.8-8.5,23.6-14.2,30.8c-1.2,1.6-2.7,1.1-2.9-0.9c-1.2-10.5-2.2-21-3.1-31.6c-1.9-23.4-5-27.3-6.3-7.8c-0.4,6.4-0.7,13.3-0.8,20.5c0,3.3-1,5-2.2,0.5c-1.1-4.3-2.2-8.6-3.2-12.9c-2.5-9.9-5-11.4-4.3,3.3c0.2,4.7,0.6,9.6,1.1,14.9c0.2,2.1-0.9,2.7-2.4,1.3c-44-39-45.1-100.9-5-160.5c0.5-0.7,0.1-1.7-0.8-2c-7.7-1.8-7-12,0.8-13c0.8-0.1,1.3-0.9,1-1.6c-1.9-5.7-2.9-12.1-2.7-18.6c0.3-7.3,3.6-25.2,14.6-20.2c2.4,1.1,2.7,1.2,5,0.3c1.4-0.6,2.3-1.9,2.3-3.5V433.2c0-4.2-2.4-7.8-6.3-9.4l-82.8-34.6c-13.2-5.5-12.2-24.7,1.5-28.7l467.5-138.3c7.9-2.3,15.2-2.3,23.1,0l467.6,138.3c13.8,4.1,14.8,23.2,1.5,28.7l-465,194.3c-10.4,4.4-20.9,4.4-31.4,0l-342.2-143C135.4,437.7,128,442.6,128,449.9"/></g>
</svg>